<svg xmlns="http://www.w3.org/2000/svg" width="347" height="720" viewBox="0 0 347 720" version="1.1"><path d="M 166.812 28.218 C 160.691 33.837, 149.036 45.058, 140.913 53.153 C 124.107 69.898, 124.388 69.311, 125.186 86.001 C 125.683 96.397, 126.013 96.917, 135.718 102.582 C 139.409 104.737, 144.132 108.118, 146.214 110.095 C 149.355 113.078, 150 114.366, 150 117.658 C 150 122.492, 147.767 124.835, 136.944 131.360 C 125.576 138.212, 125.500 138.340, 125.500 150.577 C 125.500 162.868, 125.086 162.254, 139 170.563 C 144.225 173.683, 148.831 176.746, 149.235 177.368 C 149.639 177.991, 149.976 180.334, 149.985 182.576 C 150.003 187.476, 148.421 189.075, 138.655 194.028 C 127.668 199.601, 126.446 201.127, 125.613 210.312 C 125.224 214.608, 125.217 221.955, 125.597 226.639 C 126.280 235.055, 126.331 235.184, 129.894 237.432 C 131.877 238.684, 137.100 241.286, 141.500 243.214 L 149.500 246.721 149.802 252.445 C 149.969 255.595, 149.612 258.763, 149.009 259.490 C 148.406 260.216, 144.321 262.258, 139.931 264.028 C 135.541 265.798, 130.610 268.496, 128.974 270.024 L 126 272.802 126 289.641 L 126 306.480 119.862 311.990 C 102.486 327.587, 102.779 327.242, 102.254 332.709 C 101.397 341.632, 102.903 344.072, 114.472 352.503 C 120.151 356.641, 125.067 360.733, 125.398 361.595 C 125.729 362.458, 126 366.868, 126 371.395 L 126 379.627 118.750 382.445 C 93.007 392.450, 69.150 408.936, 50.855 429.363 C 38.753 442.875, 24.855 466.517, 18.149 485 C 1.943 529.669, 5.777 580.688, 28.556 623.506 C 64.773 691.579, 143.286 726.964, 218 708.885 C 230.930 705.756, 245.362 700.380, 257 694.356 C 295.172 674.598, 326.495 637.792, 339.898 596.950 C 343.530 585.881, 347.034 568.804, 346.923 562.715 C 346.874 560.072, 346.001 563.367, 344.582 571.548 C 337.850 610.356, 316.985 646.998, 287.500 671.795 C 260.221 694.736, 229.866 707.561, 194.500 711.086 C 157.419 714.782, 117.857 705.240, 87.500 685.278 C 48.556 659.669, 22.771 621.934, 12.829 576 C 10.842 566.821, 10.552 562.606, 10.528 542.500 C 10.498 518.005, 11.090 513.333, 16.673 494.020 C 19.461 484.378, 20.212 482.512, 27.156 468 C 43.409 434.034, 71.776 405.859, 106.073 389.618 C 112.358 386.642, 119.525 383.532, 122 382.708 C 126.216 381.303, 126.543 380.933, 127.187 376.854 C 127.823 372.823, 127.524 366.585, 126.442 361.312 C 126.162 359.948, 122.076 356.269, 115.598 351.548 C 109.881 347.382, 104.933 343.267, 104.602 342.405 C 104.271 341.542, 104 338.042, 104 334.626 C 104 328.617, 104.137 328.287, 108.250 324.404 C 110.588 322.197, 115.200 318.171, 118.500 315.457 C 121.800 312.744, 125.048 309.843, 125.718 309.012 C 126.563 307.964, 126.946 302.421, 126.968 290.941 C 126.992 278.308, 127.334 273.925, 128.410 272.453 C 129.186 271.392, 134.474 268.269, 140.160 265.512 L 150.500 260.500 151.428 254.644 C 152.748 246.309, 152.995 246.595, 139 240.228 C 126.573 234.575, 126.997 235.320, 127.015 219.179 C 127.024 210.248, 127.463 204.643, 128.279 203.030 C 129.047 201.513, 132.876 198.797, 138.197 195.996 C 151.331 189.081, 153.087 186.749, 150.997 178.990 C 150.037 175.424, 149.139 174.609, 141.428 170.316 C 136.747 167.709, 131.481 164.378, 129.726 162.912 C 126.534 160.247, 126.534 160.247, 126.590 150.647 C 126.658 139.273, 126.575 139.402, 138.419 132.164 C 149.333 125.495, 152.388 121.931, 151.685 116.687 C 151.006 111.626, 147.566 108.076, 137.620 102.175 C 133.287 99.604, 129.102 96.532, 128.321 95.349 C 126.567 92.695, 125.491 80.883, 126.430 74.616 C 126.975 70.983, 128.294 68.596, 132.443 63.731 C 138.576 56.542, 176.495 20.646, 178.425 20.204 C 179.943 19.856, 197.615 34.906, 210.598 47.603 C 219.977 56.776, 227.688 65.625, 230.114 70 C 231.272 72.090, 231.582 97.846, 232 226.891 C 232.440 362.746, 232.680 381.382, 234 382.111 C 234.825 382.566, 240.450 385.104, 246.500 387.749 C 265.723 396.156, 279.389 405.352, 294.904 420.321 C 314.882 439.597, 328.696 461.158, 337.826 487.312 C 341.069 496.603, 343.753 508.194, 346.321 524 C 346.566 525.507, 346.782 524.833, 346.864 522.301 C 347.057 516.354, 343.519 498.889, 340.106 488.938 C 331.027 462.465, 318.786 442.531, 299.706 423.148 C 282.823 405.998, 267.754 395.543, 246.112 385.967 L 234 380.608 233.870 286.054 C 233.798 234.049, 233.461 164.236, 233.120 130.912 L 232.500 70.325 229.500 65.990 C 223.323 57.064, 182.038 18, 178.781 18 C 178.319 18, 172.932 22.598, 166.812 28.218 M 192.647 125.750 C 192.127 179.654, 191.584 356.287, 191.923 361.750 C 191.980 362.673, 195.008 363, 203.500 363 L 215 363 215.163 301.250 C 215.253 267.288, 215.366 203.488, 215.413 159.474 L 215.500 79.449 212.382 75.207 C 209.778 71.665, 194.931 58, 193.686 58 C 193.474 58, 193.007 88.487, 192.647 125.750 M 194.585 62.160 C 194.354 62.897, 193.926 130.662, 193.634 212.750 L 193.104 362 202.970 362 L 212.836 362 213.262 354.750 C 213.496 350.762, 213.761 287.521, 213.851 214.214 C 213.990 100.738, 213.803 80.525, 212.593 78.214 C 209.752 72.789, 195.295 59.900, 194.585 62.160 M 116.500 417.723 C 110.073 420.960, 98.450 428.539, 92.617 433.297 C 83.604 440.648, 70.778 453.833, 71.251 455.260 C 71.678 456.547, 90.411 457.603, 94.548 456.573 C 95.675 456.293, 97.673 454.137, 98.990 451.782 C 102.098 446.220, 112.702 430.015, 117.815 423.011 C 122.883 416.069, 122.538 414.682, 116.500 417.723 M 153.952 423.750 C 146.752 431.452, 133.468 448.350, 131.069 452.857 C 130.306 454.292, 130.175 455.575, 130.734 456.134 C 131.240 456.640, 138.594 456.929, 147.077 456.777 L 162.500 456.500 163 453 C 163.799 447.407, 162.995 416, 162.053 416 C 161.583 416, 157.937 419.488, 153.952 423.750 M 192.899 430.167 C 192.843 438.050, 192.617 446.300, 192.397 448.500 C 192.177 450.700, 192.234 453.524, 192.524 454.775 C 193.048 457.040, 193.116 457.048, 209.275 456.775 C 223.940 456.526, 225.487 456.334, 225.365 454.771 C 225.063 450.923, 198.061 417.485, 194.250 416.241 C 193.292 415.929, 192.976 419.184, 192.899 430.167 M 234.676 418.250 C 236.821 420.635, 249.942 440.444, 256.272 450.855 L 260.044 457.059 272.690 456.780 C 281.324 456.589, 285.461 456.124, 285.729 455.316 C 286.334 453.494, 267.263 435.530, 256.563 427.843 C 243.553 418.497, 229.262 412.233, 234.676 418.250 M 153.707 426.250 C 146.132 434.603, 132 452.820, 132 454.231 C 132 454.654, 138.750 455, 147 455 L 162 455 162 436.500 C 162 426.325, 161.817 418, 161.594 418 C 161.371 418, 157.821 421.712, 153.707 426.250 M 194 436.500 L 194 455 209 455 C 217.250 455, 223.991 454.663, 223.980 454.250 C 223.921 452.086, 196.077 418, 194.368 418 C 194.166 418, 194 426.325, 194 436.500 M 237.123 418.618 C 237.330 419.103, 240.686 424.225, 244.580 430 C 248.474 435.775, 253.588 443.762, 255.944 447.750 L 260.228 455 272.165 455 L 284.102 455 281.601 451.721 C 277.826 446.772, 265.801 436.298, 256.124 429.531 C 247.069 423.198, 236.481 417.118, 237.123 418.618 M 112.500 421.796 C 99.263 429.102, 80.794 444.042, 74.854 452.250 L 72.864 455 84.248 455 L 95.632 455 97.991 450.750 C 101.061 445.219, 111.872 428.681, 115.968 423.250 C 117.731 420.913, 118.797 419.008, 118.337 419.018 C 117.876 419.028, 115.250 420.278, 112.500 421.796 M 51.581 487.250 C 47.680 493.239, 39.909 523.715, 41.335 527.431 C 41.845 528.760, 44.231 529, 56.910 529 C 65.144 529, 72.137 528.587, 72.450 528.082 C 72.762 527.576, 73.704 523.189, 74.542 518.332 C 76.167 508.923, 79.233 496.822, 81.496 490.887 C 83.590 485.396, 82.605 485, 66.823 485 C 53.637 485, 52.983 485.096, 51.581 487.250 M 114.254 485.661 C 111.685 486.698, 104 516.649, 104 525.626 L 104 529.030 133.250 528.765 L 162.500 528.500 162.500 507 L 162.500 485.500 139 485.329 C 126.075 485.235, 114.939 485.385, 114.254 485.661 M 193.365 486.250 C 192.880 486.938, 192.633 496.844, 192.816 508.265 L 193.148 529.030 222.324 528.765 L 251.500 528.500 251.814 525.241 C 252.561 517.487, 244.400 487.820, 241.023 486.012 C 238.105 484.451, 194.478 484.668, 193.365 486.250 M 274.078 486.321 C 273.627 486.773, 274.279 490.373, 275.528 494.321 C 278.220 502.838, 282 520.268, 282 524.170 C 282 525.875, 282.739 527.325, 283.934 527.965 C 285.014 528.543, 292.316 529, 300.466 529 C 312.488 529, 315.164 528.737, 315.636 527.507 C 316.967 524.038, 308.099 489.699, 305.096 486.696 C 303.985 485.585, 275.162 485.237, 274.078 486.321 M 51.870 489.750 C 47.310 501.353, 43 518.083, 43 524.179 L 43 527 57.279 527 L 71.558 527 72.804 519.086 C 73.887 512.199, 78.561 493.869, 80.538 488.750 C 81.162 487.134, 80.132 487, 67.082 487 L 52.950 487 51.870 489.750 M 114.171 488.750 C 111.653 493.649, 105 520.708, 105 526.051 C 105 526.628, 116.183 527, 133.500 527 L 162 527 162 507 L 162 487 138.535 487 C 117.197 487, 114.989 487.159, 114.171 488.750 M 194 506.982 L 194 527 222.500 527 C 247.906 527, 251 526.827, 251 525.407 C 251 521.809, 246.856 503.931, 244.184 496 L 241.319 487.500 217.660 487.232 L 194 486.964 194 506.982 M 275.482 488.723 C 276.764 491.901, 281.741 512.312, 283.047 519.750 L 284.320 527 299.160 527 L 314 527 314 524.458 C 314 520.114, 311.167 507.945, 307.724 497.500 L 304.428 487.500 289.596 487.223 C 275.722 486.963, 274.811 487.060, 275.482 488.723 M 130.750 557.749 L 104 558.033 104 560.357 C 104 566.557, 110.917 593.046, 114.157 599.250 C 114.988 600.842, 117.224 601, 138.996 601 L 162.921 601 163.211 580.319 C 163.513 558.712, 163.158 556.681, 159.179 557.233 C 158.255 557.361, 145.463 557.593, 130.750 557.749 M 219.717 557.975 L 192.935 558.500 192.717 579.500 L 192.500 600.500 216.628 600.768 L 240.756 601.035 242.364 597.646 C 244.906 592.288, 251.015 570.149, 251.664 563.941 C 252.220 558.620, 252.119 558.263, 249.877 557.663 C 248.570 557.314, 247.275 557.123, 247 557.239 C 246.725 557.355, 234.448 557.687, 219.717 557.975 M 283.323 558.821 C 282.595 559.548, 282 561.637, 282 563.463 C 282 568.027, 278.452 585.337, 276.037 592.558 C 274.944 595.826, 274.038 599.063, 274.025 599.750 C 274.006 600.695, 277.647 601, 288.965 601 C 302.194 601, 304.038 600.797, 304.865 599.250 C 309.084 591.354, 317.323 559.989, 315.624 558.291 C 315.292 557.959, 308.187 557.645, 299.834 557.594 C 288.478 557.524, 284.313 557.833, 283.323 558.821 M 41.509 563.069 C 42.686 571.624, 46.604 586.154, 49.718 593.508 L 52.677 600.500 67.339 600.777 C 75.402 600.929, 82 600.769, 82 600.421 C 82 600.074, 80.887 596.124, 79.528 591.645 C 76.728 582.424, 74.534 572.207, 73.535 563.750 L 72.856 558 56.834 558 L 40.812 558 41.509 563.069 M 43 561.483 C 43 566.004, 46.891 581.642, 50.265 590.685 L 53.555 599.500 66.778 599.779 C 74.050 599.932, 80 599.834, 80 599.560 C 80 599.287, 78.647 594.211, 76.993 588.281 C 75.339 582.352, 73.402 573.450, 72.690 568.500 L 71.394 559.500 57.197 559.223 L 43 558.945 43 561.483 M 105.676 559.750 C 104.919 561.035, 109.687 582.078, 112.757 591 L 115.682 599.500 138.591 599.500 L 161.500 599.500 161.771 579.250 L 162.041 559 134.080 559 C 118.701 559, 105.919 559.337, 105.676 559.750 M 194.229 579.250 L 194.500 599.500 216.374 599.770 C 231.571 599.957, 238.664 599.694, 239.613 598.906 C 241.880 597.025, 250.851 566.134, 250.984 559.750 C 250.993 559.337, 238.166 559, 222.479 559 L 193.959 559 194.229 579.250 M 283.195 567.250 C 282.532 571.788, 280.812 580, 279.372 585.500 C 277.933 591, 276.533 596.513, 276.261 597.750 C 275.768 599.993, 275.807 600, 288.633 599.985 C 295.710 599.976, 301.996 599.639, 302.601 599.235 C 304.192 598.173, 310.593 579.577, 312.432 570.677 C 315.068 557.915, 316.298 559, 299.200 559 L 284.401 559 283.195 567.250 M 72.437 631.102 C 71.625 632.415, 85.767 646.498, 94.874 653.445 C 100.373 657.640, 117.222 668, 118.546 668 C 119.903 668, 118.125 664.846, 109.634 652.200 C 104.483 644.527, 99.225 636.393, 97.950 634.125 L 95.632 630 84.375 630 C 77.254 630, 72.868 630.405, 72.437 631.102 M 131.707 630.627 C 130.259 632.074, 136.515 640.992, 151.642 659.046 C 159.049 667.885, 161.749 670.585, 162.466 669.868 C 162.796 669.537, 163.307 636.370, 163.060 631.250 C 163.015 630.307, 159.235 630, 147.667 630 C 139.233 630, 132.051 630.282, 131.707 630.627 M 192.835 631.250 C 192.198 633.350, 192.561 667.894, 193.227 668.560 C 194.254 669.587, 196.343 667.859, 202.966 660.502 C 211.857 650.627, 224 634.100, 224 631.874 C 224 630.123, 222.989 630, 208.607 630 C 197.161 630, 193.117 630.321, 192.835 631.250 M 259.281 631.250 C 258.751 631.938, 255.920 636.550, 252.991 641.500 C 250.061 646.450, 245.039 654.170, 241.832 658.656 C 238.624 663.141, 236 667.079, 236 667.406 C 236 670.092, 247.681 663.800, 261.122 653.874 C 270.689 646.810, 284 633.811, 284 631.532 C 284 630.242, 282.125 630, 272.122 630 C 263.801 630, 259.956 630.374, 259.281 631.250 M 75 632.827 C 75 634.271, 90.230 648.375, 97.500 653.663 C 105.421 659.425, 116 665.578, 116 664.424 C 116 664.003, 115.360 662.947, 114.577 662.079 C 112.875 660.190, 101.617 643.131, 97.775 636.619 L 95.049 632 85.025 632 C 79.511 632, 75 632.372, 75 632.827 M 134.547 634.750 C 139.801 642.882, 154.617 660.965, 159.151 664.781 L 162 667.178 162 649.589 L 162 632 147.385 632 L 132.770 632 134.547 634.750 M 194.048 649.606 L 194.170 667.212 197.186 664.356 C 201.835 659.955, 214.382 644.801, 218.963 638.055 L 223.075 632 208.500 632 L 193.925 632 194.048 649.606 M 259.831 633.750 C 259.018 634.712, 255.748 639.775, 252.565 645 C 249.382 650.225, 245.028 656.843, 242.889 659.707 C 240.750 662.571, 239 665.166, 239 665.474 C 239 666.526, 248.490 661.186, 255.500 656.190 C 265.873 648.798, 275.191 640.809, 278.892 636.136 L 282.168 632 271.739 632 C 263.037 632, 261.065 632.290, 259.831 633.750" stroke="none" fill="#6582e2" fill-rule="evenodd"/><path d="M 156.207 40.269 C 130.856 64.355, 127.364 68.388, 126.421 74.677 C 125.489 80.892, 126.575 92.706, 128.321 95.349 C 129.102 96.532, 133.287 99.604, 137.620 102.175 C 147.566 108.076, 151.006 111.626, 151.685 116.687 C 152.388 121.931, 149.333 125.495, 138.419 132.164 C 126.575 139.402, 126.658 139.273, 126.590 150.647 C 126.534 160.247, 126.534 160.247, 129.726 162.912 C 131.481 164.378, 136.747 167.709, 141.428 170.316 C 149.139 174.609, 150.037 175.424, 150.997 178.990 C 153.087 186.749, 151.331 189.081, 138.197 195.996 C 132.876 198.797, 129.047 201.513, 128.279 203.030 C 127.463 204.643, 127.024 210.248, 127.015 219.179 C 126.997 235.320, 126.573 234.575, 139 240.228 C 152.995 246.595, 152.748 246.309, 151.428 254.644 L 150.500 260.500 140.160 265.512 C 134.474 268.269, 129.186 271.392, 128.410 272.453 C 127.334 273.925, 126.992 278.308, 126.968 290.941 C 126.946 302.421, 126.563 307.964, 125.718 309.012 C 125.048 309.843, 121.800 312.744, 118.500 315.457 C 115.200 318.171, 110.587 322.197, 108.250 324.404 C 104.137 328.287, 104 328.617, 104 334.626 C 104 338.042, 104.271 341.542, 104.602 342.405 C 104.933 343.267, 109.881 347.382, 115.598 351.548 C 122.076 356.269, 126.162 359.948, 126.442 361.312 C 127.524 366.585, 127.823 372.823, 127.187 376.854 C 126.543 380.933, 126.216 381.303, 122 382.708 C 119.525 383.532, 112.358 386.642, 106.073 389.618 C 71.776 405.859, 43.409 434.034, 27.156 468 C 20.212 482.512, 19.461 484.378, 16.673 494.020 C 11.090 513.333, 10.498 518.005, 10.528 542.500 C 10.552 562.606, 10.842 566.821, 12.829 576 C 22.771 621.934, 48.556 659.669, 87.500 685.278 C 117.857 705.240, 157.419 714.782, 194.500 711.086 C 229.866 707.561, 260.221 694.736, 287.500 671.795 C 310.169 652.730, 329.373 624.075, 338.966 595 C 340.690 589.775, 343.235 578.975, 344.623 571 C 346.881 558.024, 347.095 554.608, 346.657 538.500 C 346.281 524.633, 345.595 517.745, 343.672 508.500 C 336.582 474.416, 320.119 444.650, 294.904 420.321 C 279.389 405.352, 265.723 396.156, 246.500 387.749 C 240.450 385.104, 234.825 382.566, 234 382.111 C 232.680 381.382, 232.440 362.746, 232 226.891 C 231.582 97.846, 231.272 72.090, 230.114 70 C 227.688 65.625, 219.977 56.776, 210.598 47.603 C 198.965 36.227, 180.172 19.994, 178.662 20.019 C 178.023 20.029, 167.918 29.142, 156.207 40.269 M 192.647 125.750 C 192.127 179.654, 191.584 356.287, 191.923 361.750 C 191.980 362.673, 195.008 363, 203.500 363 L 215 363 215.163 301.250 C 215.253 267.288, 215.366 203.488, 215.413 159.474 L 215.500 79.449 212.382 75.207 C 209.778 71.665, 194.931 58, 193.686 58 C 193.474 58, 193.007 88.487, 192.647 125.750 M 116.500 417.723 C 110.073 420.960, 98.450 428.539, 92.617 433.297 C 83.604 440.648, 70.778 453.833, 71.251 455.260 C 71.678 456.547, 90.411 457.603, 94.548 456.573 C 95.675 456.293, 97.673 454.137, 98.990 451.782 C 102.098 446.220, 112.702 430.015, 117.815 423.011 C 122.883 416.069, 122.538 414.682, 116.500 417.723 M 153.952 423.750 C 146.752 431.452, 133.468 448.350, 131.069 452.857 C 130.306 454.292, 130.175 455.575, 130.734 456.134 C 131.240 456.640, 138.594 456.929, 147.077 456.777 L 162.500 456.500 163 453 C 163.799 447.407, 162.995 416, 162.053 416 C 161.583 416, 157.937 419.488, 153.952 423.750 M 192.899 430.167 C 192.843 438.050, 192.617 446.300, 192.397 448.500 C 192.177 450.700, 192.234 453.524, 192.524 454.775 C 193.048 457.040, 193.116 457.048, 209.275 456.775 C 223.940 456.526, 225.487 456.334, 225.365 454.771 C 225.063 450.923, 198.061 417.485, 194.250 416.241 C 193.292 415.929, 192.976 419.184, 192.899 430.167 M 234.676 418.250 C 236.821 420.635, 249.942 440.444, 256.272 450.855 L 260.044 457.059 272.690 456.780 C 281.324 456.589, 285.461 456.124, 285.729 455.316 C 286.334 453.494, 267.263 435.530, 256.563 427.843 C 243.553 418.497, 229.262 412.233, 234.676 418.250 M 51.581 487.250 C 47.680 493.239, 39.909 523.715, 41.335 527.431 C 41.845 528.760, 44.231 529, 56.910 529 C 65.144 529, 72.137 528.587, 72.450 528.082 C 72.762 527.576, 73.704 523.189, 74.542 518.332 C 76.167 508.923, 79.233 496.822, 81.496 490.887 C 83.590 485.396, 82.605 485, 66.823 485 C 53.637 485, 52.983 485.096, 51.581 487.250 M 114.254 485.661 C 111.685 486.698, 104 516.649, 104 525.626 L 104 529.030 133.250 528.765 L 162.500 528.500 162.500 507 L 162.500 485.500 139 485.329 C 126.075 485.235, 114.939 485.385, 114.254 485.661 M 193.365 486.250 C 192.880 486.938, 192.633 496.844, 192.816 508.265 L 193.148 529.030 222.324 528.765 L 251.500 528.500 251.814 525.241 C 252.561 517.487, 244.400 487.820, 241.023 486.012 C 238.105 484.451, 194.478 484.668, 193.365 486.250 M 274.078 486.321 C 273.627 486.773, 274.279 490.373, 275.528 494.321 C 278.220 502.838, 282 520.268, 282 524.170 C 282 525.875, 282.739 527.325, 283.934 527.965 C 285.014 528.543, 292.316 529, 300.466 529 C 312.488 529, 315.164 528.737, 315.636 527.507 C 316.967 524.038, 308.099 489.699, 305.096 486.696 C 303.985 485.585, 275.162 485.237, 274.078 486.321 M 130.750 557.749 L 104 558.033 104 560.357 C 104 566.557, 110.917 593.046, 114.157 599.250 C 114.988 600.842, 117.224 601, 138.996 601 L 162.921 601 163.211 580.319 C 163.513 558.712, 163.158 556.681, 159.179 557.233 C 158.255 557.361, 145.463 557.593, 130.750 557.749 M 219.717 557.975 L 192.935 558.500 192.717 579.500 L 192.500 600.500 216.628 600.768 L 240.756 601.035 242.364 597.646 C 244.906 592.288, 251.015 570.149, 251.664 563.941 C 252.220 558.620, 252.119 558.263, 249.877 557.663 C 248.570 557.314, 247.275 557.123, 247 557.239 C 246.725 557.355, 234.448 557.687, 219.717 557.975 M 283.323 558.821 C 282.595 559.548, 282 561.637, 282 563.463 C 282 568.027, 278.452 585.337, 276.037 592.558 C 274.944 595.826, 274.038 599.063, 274.025 599.750 C 274.006 600.695, 277.647 601, 288.965 601 C 302.194 601, 304.038 600.797, 304.865 599.250 C 309.084 591.354, 317.323 559.989, 315.624 558.291 C 315.292 557.959, 308.187 557.645, 299.834 557.594 C 288.478 557.524, 284.313 557.833, 283.323 558.821 M 41.509 563.069 C 42.686 571.624, 46.604 586.154, 49.718 593.508 L 52.677 600.500 67.339 600.777 C 75.402 600.929, 82 600.769, 82 600.421 C 82 600.074, 80.887 596.124, 79.528 591.645 C 76.728 582.424, 74.534 572.207, 73.535 563.750 L 72.856 558 56.834 558 L 40.812 558 41.509 563.069 M 72.437 631.102 C 71.625 632.415, 85.767 646.498, 94.874 653.445 C 100.373 657.640, 117.222 668, 118.546 668 C 119.903 668, 118.125 664.846, 109.634 652.200 C 104.483 644.527, 99.225 636.393, 97.950 634.125 L 95.632 630 84.375 630 C 77.254 630, 72.868 630.405, 72.437 631.102 M 131.707 630.627 C 130.259 632.074, 136.515 640.992, 151.642 659.046 C 159.049 667.885, 161.749 670.585, 162.466 669.868 C 162.796 669.537, 163.307 636.370, 163.060 631.250 C 163.015 630.307, 159.235 630, 147.667 630 C 139.233 630, 132.051 630.282, 131.707 630.627 M 192.835 631.250 C 192.198 633.350, 192.561 667.894, 193.227 668.560 C 194.254 669.587, 196.343 667.859, 202.966 660.502 C 211.857 650.627, 224 634.100, 224 631.874 C 224 630.123, 222.989 630, 208.607 630 C 197.161 630, 193.117 630.321, 192.835 631.250 M 259.281 631.250 C 258.751 631.938, 255.920 636.550, 252.991 641.500 C 250.061 646.450, 245.039 654.170, 241.832 658.656 C 238.624 663.141, 236 667.079, 236 667.406 C 236 670.092, 247.681 663.800, 261.122 653.874 C 270.689 646.810, 284 633.811, 284 631.532 C 284 630.242, 282.125 630, 272.122 630 C 263.801 630, 259.956 630.374, 259.281 631.250" stroke="none" fill="#0533f9" fill-rule="evenodd"/></svg>